<svg xmlns="http://www.w3.org/2000/svg" version="1.1" xmlns:xlink="http://www.w3.org/1999/xlink" xmlns:svgjs="http://svgjs.com/svgjs" preserveAspectRatio="xMidYMid meet" viewBox="0 0 400 662.3231994628907"><rect width="100%" height="100%" fill="#ffffff"/><text x="200" y="0.7231998443603516" font-family="Arial, &quot;Helvetica Neue&quot;, Helvetica, sans-serif" font-size="48" text-anchor="middle" fill="#000000" class="title"><tspan dy="62.400000000000006" x="200">E minor</tspan></text><line x1="65.6" y1="82.72319946289062" x2="94.39999999999999" y2="111.52319946289062" stroke-width="2" stroke="#000000"/><line x1="65.6" y1="111.52319946289062" x2="94.39999999999999" y2="82.72319946289062" stroke-width="2" stroke="#000000"/><line x1="79" y1="122.12319946289062" x2="321" y2="122.12319946289062" stroke-width="2" stroke="#000000"/><text x="340.6" y="118.84639930725098" font-family="Arial, &quot;Helvetica Neue&quot;, Helvetica, sans-serif" font-size="38" text-anchor="left" fill="#000000" class="fret-position"><tspan dy="49.4" x="340.6">7fr</tspan></text><line x1="80" y1="195.12319946289062" x2="320" y2="195.12319946289062" stroke-width="2" stroke="#000000"/><line x1="80" y1="267.1231994628906" x2="320" y2="267.1231994628906" stroke-width="2" stroke="#000000"/><line x1="80" y1="339.1231994628906" x2="320" y2="339.1231994628906" stroke-width="2" stroke="#000000"/><line x1="80" y1="411.1231994628906" x2="320" y2="411.1231994628906" stroke-width="2" stroke="#000000"/><line x1="80" y1="483.1231994628906" x2="320" y2="483.1231994628906" stroke-width="2" stroke="#000000"/><line x1="80" y1="555.1231994628906" x2="320" y2="555.1231994628906" stroke-width="2" stroke="#000000"/><line x1="80" y1="627.1231994628906" x2="320" y2="627.1231994628906" stroke-width="2" stroke="#000000"/><line x1="80" y1="123.12319946289062" x2="80" y2="628.1231994628906" stroke-width="2" stroke="#000000"/><line x1="128" y1="123.12319946289062" x2="128" y2="628.1231994628906" stroke-width="2" stroke="#000000"/><line x1="176" y1="123.12319946289062" x2="176" y2="628.1231994628906" stroke-width="2" stroke="#000000"/><line x1="224" y1="123.12319946289062" x2="224" y2="628.1231994628906" stroke-width="2" stroke="#000000"/><line x1="272" y1="123.12319946289062" x2="272" y2="628.1231994628906" stroke-width="2" stroke="#000000"/><line x1="320" y1="123.12319946289062" x2="320" y2="628.1231994628906" stroke-width="2" stroke="#000000"/><rect width="216" height="31.200000000000003" x="116" y="143.02319946289063" fill="#000000" stroke-width="0" stroke="#000000" rx="7.800000000000001" ry="7.800000000000001" class="barre barre-fret-0"/><circle r="15.600000000000001" cx="272" cy="231.12319946289062" fill="#000000" stroke-width="0" stroke="#000000" class="finger finger-string-4 finger-fret-1 finger-string-4-fret-1 finger-circle"/><circle r="15.600000000000001" cx="224" cy="303.1231994628906" fill="#000000" stroke-width="0" stroke="#000000" class="finger finger-string-3 finger-fret-2 finger-string-3-fret-2 finger-circle"/><circle r="15.600000000000001" cx="176" cy="303.1231994628906" fill="#000000" stroke-width="0" stroke="#000000" class="finger finger-string-2 finger-fret-2 finger-string-2-fret-2 finger-circle"/><text x="200" y="637.246399307251" font-family="Arial, &quot;Helvetica Neue&quot;, Helvetica, sans-serif" font-size="12" text-anchor="middle" fill="#000000" class="watermark"><tspan dy="15.600000000000001" x="200">guitar tab creator</tspan></text><circle r="0" cx="0" cy="0" fill="none" stroke-width="0" stroke="transparent" class="top-left"/><circle r="0" cx="400" cy="0" fill="none" stroke-width="0" stroke="transparent" class="top-right"/></svg>