<svg xmlns="http://www.w3.org/2000/svg" version="1.1" xmlns:xlink="http://www.w3.org/1999/xlink" xmlns:svgjs="http://svgjs.com/svgjs" preserveAspectRatio="xMidYMid meet" viewBox="0 0 400 631.9231994628907"><rect width="100%" height="100%" fill="#ffffff"/><text x="200" y="0.7231998443603516" font-family="Arial, &quot;Helvetica Neue&quot;, Helvetica, sans-serif" font-size="48" text-anchor="middle" fill="#000000" class="title"><tspan dy="62.400000000000006" x="200">D</tspan></text><line x1="79" y1="87.72319946289062" x2="321" y2="87.72319946289062" stroke-width="10" stroke="#000000"/><line x1="80" y1="164.72319946289062" x2="320" y2="164.72319946289062" stroke-width="2" stroke="#000000"/><line x1="80" y1="236.72319946289062" x2="320" y2="236.72319946289062" stroke-width="2" stroke="#000000"/><line x1="80" y1="308.72319946289065" x2="320" y2="308.72319946289065" stroke-width="2" stroke="#000000"/><line x1="80" y1="380.72319946289065" x2="320" y2="380.72319946289065" stroke-width="2" stroke="#000000"/><line x1="80" y1="452.72319946289065" x2="320" y2="452.72319946289065" stroke-width="2" stroke="#000000"/><line x1="80" y1="524.7231994628906" x2="320" y2="524.7231994628906" stroke-width="2" stroke="#000000"/><line x1="80" y1="596.7231994628906" x2="320" y2="596.7231994628906" stroke-width="2" stroke="#000000"/><line x1="80" y1="92.72319946289062" x2="80" y2="597.7231994628906" stroke-width="2" stroke="#000000"/><line x1="128" y1="92.72319946289062" x2="128" y2="597.7231994628906" stroke-width="2" stroke="#000000"/><line x1="176" y1="92.72319946289062" x2="176" y2="597.7231994628906" stroke-width="2" stroke="#000000"/><line x1="224" y1="92.72319946289062" x2="224" y2="597.7231994628906" stroke-width="2" stroke="#000000"/><line x1="272" y1="92.72319946289062" x2="272" y2="597.7231994628906" stroke-width="2" stroke="#000000"/><line x1="320" y1="92.72319946289062" x2="320" y2="597.7231994628906" stroke-width="2" stroke="#000000"/><circle r="15.600000000000001" cx="320" cy="200.72319946289062" fill="#000000" stroke-width="0" stroke="#000000" class="finger finger-string-5 finger-fret-1 finger-string-5-fret-1 finger-circle"/><circle r="15.600000000000001" cx="224" cy="200.72319946289062" fill="#000000" stroke-width="0" stroke="#000000" class="finger finger-string-3 finger-fret-1 finger-string-3-fret-1 finger-circle"/><circle r="15.600000000000001" cx="272" cy="272.72319946289065" fill="#000000" stroke-width="0" stroke="#000000" class="finger finger-string-4 finger-fret-2 finger-string-4-fret-2 finger-circle"/><text x="200" y="606.846399307251" font-family="Arial, &quot;Helvetica Neue&quot;, Helvetica, sans-serif" font-size="12" text-anchor="middle" fill="#000000" class="watermark"><tspan dy="15.600000000000001" x="200">guitar tab creator</tspan></text><circle r="0" cx="0" cy="0" fill="none" stroke-width="0" stroke="transparent" class="top-left"/><circle r="0" cx="400" cy="0" fill="none" stroke-width="0" stroke="transparent" class="top-right"/></svg>