<svg xmlns="http://www.w3.org/2000/svg" version="1.1" xmlns:xlink="http://www.w3.org/1999/xlink" xmlns:svgjs="http://svgjs.com/svgjs" preserveAspectRatio="xMidYMid meet" viewBox="0 0 400 526.3231994628907"><rect width="100%" height="100%" fill="#ffffff"/><text x="201" y="0.7231998443603516" font-family="Arial, &quot;Helvetica Neue&quot;, Helvetica, sans-serif" font-size="48" text-anchor="middle" fill="#000000" class="title"><tspan dy="62.400000000000006" x="201">A minor</tspan></text><line x1="305.6" y1="82.72319946289062" x2="334.40000000000003" y2="111.52319946289062" stroke-width="2" stroke="#000000"/><line x1="305.6" y1="111.52319946289062" x2="334.40000000000003" y2="82.72319946289062" stroke-width="2" stroke="#000000"/><line x1="257.6" y1="82.72319946289062" x2="286.40000000000003" y2="111.52319946289062" stroke-width="2" stroke="#000000"/><line x1="257.6" y1="111.52319946289062" x2="286.40000000000003" y2="82.72319946289062" stroke-width="2" stroke="#000000"/><line x1="209.6" y1="82.72319946289062" x2="238.39999999999998" y2="111.52319946289062" stroke-width="2" stroke="#000000"/><line x1="209.6" y1="111.52319946289062" x2="238.39999999999998" y2="82.72319946289062" stroke-width="2" stroke="#000000"/><line x1="65.6" y1="82.72319946289062" x2="94.39999999999999" y2="111.52319946289062" stroke-width="2" stroke="#000000"/><line x1="65.6" y1="111.52319946289062" x2="94.39999999999999" y2="82.72319946289062" stroke-width="2" stroke="#000000"/><line x1="79" y1="126.12319946289062" x2="321" y2="126.12319946289062" stroke-width="10" stroke="#000000"/><line x1="80" y1="203.12319946289062" x2="320" y2="203.12319946289062" stroke-width="2" stroke="#000000"/><line x1="80" y1="275.1231994628906" x2="320" y2="275.1231994628906" stroke-width="2" stroke="#000000"/><line x1="80" y1="347.1231994628906" x2="320" y2="347.1231994628906" stroke-width="2" stroke="#000000"/><line x1="80" y1="419.1231994628906" x2="320" y2="419.1231994628906" stroke-width="2" stroke="#000000"/><line x1="80" y1="491.1231994628906" x2="320" y2="491.1231994628906" stroke-width="2" stroke="#000000"/><line x1="80" y1="131.12319946289062" x2="80" y2="492.1231994628906" stroke-width="2" stroke="#000000"/><line x1="128" y1="131.12319946289062" x2="128" y2="492.1231994628906" stroke-width="2" stroke="#000000"/><line x1="176" y1="131.12319946289062" x2="176" y2="492.1231994628906" stroke-width="2" stroke="#000000"/><line x1="224" y1="131.12319946289062" x2="224" y2="492.1231994628906" stroke-width="2" stroke="#000000"/><line x1="272" y1="131.12319946289062" x2="272" y2="492.1231994628906" stroke-width="2" stroke="#000000"/><line x1="320" y1="131.12319946289062" x2="320" y2="492.1231994628906" stroke-width="2" stroke="#000000"/><circle r="15.600000000000001" cx="176" cy="239.12319946289062" fill="#000000" stroke-width="0" stroke="#000000" class="finger finger-string-2 finger-fret-1 finger-string-2-fret-1 finger-circle"/><text x="200" y="501.24639930725095" font-family="Arial, &quot;Helvetica Neue&quot;, Helvetica, sans-serif" font-size="12" text-anchor="middle" fill="#000000" class="watermark"><tspan dy="15.600000000000001" x="200">guitar tab creator</tspan></text><circle r="0" cx="0" cy="0" fill="none" stroke-width="0" stroke="transparent" class="top-left"/><circle r="0" cx="400" cy="0" fill="none" stroke-width="0" stroke="transparent" class="top-right"/></svg>