<svg xmlns="http://www.w3.org/2000/svg" version="1.1" xmlns:xlink="http://www.w3.org/1999/xlink" xmlns:svgjs="http://svgjs.com/svgjs" preserveAspectRatio="xMidYMid meet" viewBox="0 0 400 589.2"><rect width="100%" height="100%" fill="#ffffff"/><text x="200" y="5" font-family="Arial, &quot;Helvetica Neue&quot;, Helvetica, sans-serif" font-size="48" text-anchor="middle" fill="#000000" class="title"><tspan dy="22.2768" x="200"></tspan></text><line x1="305.6" y1="9.6" x2="334.40000000000003" y2="38.4" stroke-width="2" stroke="#000000"/><line x1="305.6" y1="38.4" x2="334.40000000000003" y2="9.6" stroke-width="2" stroke="#000000"/><line x1="257.6" y1="9.6" x2="286.40000000000003" y2="38.4" stroke-width="2" stroke="#000000"/><line x1="257.6" y1="38.4" x2="286.40000000000003" y2="9.6" stroke-width="2" stroke="#000000"/><line x1="65.6" y1="9.6" x2="94.39999999999999" y2="38.4" stroke-width="2" stroke="#000000"/><line x1="65.6" y1="38.4" x2="94.39999999999999" y2="9.6" stroke-width="2" stroke="#000000"/><line x1="79" y1="49" x2="321" y2="49" stroke-width="2" stroke="#000000"/><text x="340.6" y="45.72319984436035" font-family="Arial, &quot;Helvetica Neue&quot;, Helvetica, sans-serif" font-size="38" text-anchor="left" fill="#000000" class="fret-position"><tspan dy="49.4" x="340.6">3fr</tspan></text><line x1="80" y1="122" x2="320" y2="122" stroke-width="2" stroke="#000000"/><line x1="80" y1="194" x2="320" y2="194" stroke-width="2" stroke="#000000"/><line x1="80" y1="266" x2="320" y2="266" stroke-width="2" stroke="#000000"/><line x1="80" y1="338" x2="320" y2="338" stroke-width="2" stroke="#000000"/><line x1="80" y1="410" x2="320" y2="410" stroke-width="2" stroke="#000000"/><line x1="80" y1="482" x2="320" y2="482" stroke-width="2" stroke="#000000"/><line x1="80" y1="554" x2="320" y2="554" stroke-width="2" stroke="#000000"/><line x1="80" y1="50" x2="80" y2="555" stroke-width="2" stroke="#000000"/><line x1="128" y1="50" x2="128" y2="555" stroke-width="2" stroke="#000000"/><line x1="176" y1="50" x2="176" y2="555" stroke-width="2" stroke="#000000"/><line x1="224" y1="50" x2="224" y2="555" stroke-width="2" stroke="#000000"/><line x1="272" y1="50" x2="272" y2="555" stroke-width="2" stroke="#000000"/><line x1="320" y1="50" x2="320" y2="555" stroke-width="2" stroke="#000000"/><circle r="15.600000000000001" cx="128" cy="230" fill="#000000" stroke-width="0" stroke="#000000" class="finger finger-string-1 finger-fret-2 finger-string-1-fret-2 finger-circle"/><circle r="15.600000000000001" cx="224" cy="374" fill="#000000" stroke-width="0" stroke="#000000" class="finger finger-string-3 finger-fret-4 finger-string-3-fret-4 finger-circle"/><circle r="15.600000000000001" cx="176" cy="374" fill="#000000" stroke-width="0" stroke="#000000" class="finger finger-string-2 finger-fret-4 finger-string-2-fret-4 finger-circle"/><text x="200" y="564.1231998443603" font-family="Arial, &quot;Helvetica Neue&quot;, Helvetica, sans-serif" font-size="12" text-anchor="middle" fill="#000000" class="watermark"><tspan dy="15.600000000000001" x="200">guitar tab creator</tspan></text><circle r="0" cx="0" cy="0" fill="none" stroke-width="0" stroke="transparent" class="top-left"/><circle r="0" cx="400" cy="0" fill="none" stroke-width="0" stroke="transparent" class="top-right"/></svg>
